{"title":"Every Little Step w BonFeats DVDRIP x264 Eng Subs","uid":14031929,"size":2271124245,"categoryP":"video","categoryS":"movies","magnet":"?xt=urn:btih:6679fb3936b6ef7dd30d9ef7bdf5cb85815519e4&amp;dn=Every+Little+Step+w+BonFeats+DVDRIP+x264+Eng+Subs&amp;tr=udp%3A%2F%2Ftracker.leechers-paradise.org%3A6969&amp;tr=udp%3A%2F%2Fzer0day.ch%3A1337&amp;tr=udp%3A%2F%2Fopen.demonii.com%3A1337&amp;tr=udp%3A%2F%2Ftracker.coppersurfer.tk%3A6969&amp;tr=udp%3A%2F%2Fexodus.desync.com%3A6969","seeders":0,"leechers":1,"uploader":"ChasVA","files":11,"time":1458960337,"description":"Every Little Step: The Journey of &quot;A Chorus Line&quot;\r\n\r\n-=-=-=-=-=-=-=-=-=-=-=-=-=-=-=-=-=-=-=-=-=-=-=-=-=-=-\r\n\r\nContains commentary and English and French subtitles for the main film; most of the features are subtitled in English as well.\r\n\r\n-=-=-=-=-=-=-=-=-=-=-=-=-=-=-=-=-=-=-=-=-=-=-=-=-=-=-\r\n\r\nFrom the DVD cover:\r\n\r\nFor over three decades, there’s been one singular sensation: A Chorus Line, the groundbreaking hit musical inspired by the emotional lives of dancers during the audition process. Now the story comes full circle as a new documentary offers a revealing, unprecedented look at the auditions for the Broadway revival of the perennial classic, including interview footage with Bob Avian, Michael Bennett, Charlotte D'Amboise, Marvin Hamlisch and Donna McKechnie, to name a few. The music, the moves and the real-life drama—they’re all here in a documentary that brings you closer to the footlights than you ever thought possible.\r\n\r\n-=-=-=-=-=-=-=-=-=-=-=-=-=-=-=-=-=-=-=-=-=-=-=-=-=-=-\r\n\r\nTechnical Specifications\r\n(For main film)\r\n\r\nFormat                                   : MPEG-4\r\nFormat profile                           : Base Media / Version 2\r\nCodec ID                                 : mp42 (isom/iso2/avc1/mp41)\r\nFile size                                : 1.80 GiB\r\nDuration                                 : 1h 33mn\r\nOverall bit rate mode                    : Variable\r\nOverall bit rate                         : 2 755 Kbps\r\n\r\nVideo\r\n\r\nID                                       : 1\r\nFormat                                   : AVC\r\nFormat/Info                              : Advanced Video Codec\r\nFormat profile                           :   \r\nFormat settings, CABAC                   : Yes\r\nFormat settings, ReFrames                : 4 frames\r\nCodec ID                                 : avc1\r\nCodec ID/Info                            : Advanced Video Coding\r\nDuration                                 : 1h 33mn\r\nBit rate                                 : 2 400 Kbps\r\nWidth                                    : 720 pixels\r\nHeight                                   : 480 pixels\r\nDisplay aspect ratio                     : 16:9\r\nOriginal display aspect ratio            : 16:9\r\nFrame rate mode                          : Variable\r\nFrame rate                               : 29.970 fps\r\nMinimum frame rate                       : 15.152 fps\r\nMaximum frame rate                       : 30.303 fps\r\nStandard                                 : NTSC\r\nColor space                              : YUV\r\nChroma subsampling                       : 4:2:0\r\nBit depth                                : 8 bits\r\nScan type                                : Progressive\r\nBits/(Pixel*Frame)                       : 0.232\r\nStream size                              : 1.56 GiB (87%)\r\n\r\nAudio #1\r\n\r\nID                                       : 2\r\nFormat                                   : AAC\r\nFormat/Info                              : Advanced Audio Codec\r\nFormat profile                           : LC\r\nCodec ID                                 : 40\r\nDuration                                 : 1h 33mn\r\nBit rate mode                            : Variable\r\nBit rate                                 : 160 Kbps\r\nChannel(s)                               : 2 channels\r\nChannel positions                        : Front: L R\r\nSampling rate                            : 48.0 KHz\r\nFrame rate                               : 46.875 fps (1024 spf)\r\nCompression mode                         : Lossy\r\nStream size                              : 107 MiB (6%)\r\nTitle                                    : Stereo / Stereo\r\nLanguage                                 : English\r\nDefault                                  : Yes\r\nAlternate group                          : 1\r\n\r\nAudio #2\r\n\r\nID                                       : 3\r\nFormat                                   : AAC\r\nFormat/Info                              : Advanced Audio Codec\r\nFormat profile                           : LC\r\nCodec ID                                 : 40\r\nDuration                                 : 1h 33mn\r\nBit rate mode                            : Variable\r\nBit rate                                 : 160 Kbps\r\nChannel(s)                               : 2 channels\r\nChannel positions                        : Front: L R\r\nSampling rate                            : 48.0 KHz\r\nFrame rate                               : 46.875 fps (1024 spf)\r\nCompression mode                         : Lossy\r\nStream size                              : 107 MiB (6%)\r\nTitle                                    : Stereo / Stereo\r\nLanguage                                 : English\r\nDefault                                  : No\r\nAlternate group                          : 1\r\n\r\nText #1\r\n\r\nID                                       : 4\r\nFormat                                   : mp4s\r\nCodec ID                                 : E0\r\nDuration                                 : 1h 29mn\r\nBit rate mode                            : Variable\r\nBit rate                                 : 7 540 bps\r\nStream size                              : 4.83 MiB (0%)\r\nLanguage                                 : English\r\nDefault                                  : Yes\r\nForced                                   : No\r\nAlternate group                          : 3\r\n\r\nText #2\r\n\r\nID                                       : 5\r\nFormat                                   : mp4s\r\nCodec ID                                 : E0\r\nDuration                                 : 1h 33mn\r\nBit rate mode                            : Variable\r\nBit rate                                 : 10.4 Kbps\r\nStream size                              : 6.90 MiB (0%)\r\nLanguage                                 : English\r\nDefault                                  : No\r\nForced                                   : No\r\nAlternate group                          : 3\r\n\r\nText #3\r\n\r\nID                                       : 6\r\nFormat                                   : mp4s\r\nCodec ID                                 : E0\r\nDuration                                 : 1h 30mn\r\nBit rate mode                            : Variable\r\nBit rate                                 : 6 346 bps\r\nStream size                              : 4.10 MiB (0%)\r\nLanguage                                 : French\r\nDefault                                  : No\r\nForced                                   : No\r\nAlternate group                          : 3","torrent":{"xt":"urn:btih:6679fb3936b6ef7dd30d9ef7bdf5cb85815519e4","amp;dn":"Every+Little+Step+w+BonFeats+DVDRIP+x264+Eng+Subs","amp;tr":["udp%3A%2F%2Ftracker.leechers-paradise.org%3A6969","udp%3A%2F%2Fzer0day.ch%3A1337","udp%3A%2F%2Fopen.demonii.com%3A1337","udp%3A%2F%2Ftracker.coppersurfer.tk%3A6969","udp%3A%2F%2Fexodus.desync.com%3A6969"],"infoHash":"6679fb3936b6ef7dd30d9ef7bdf5cb85815519e4","infoHashBuffer":{"type":"Buffer","data":[102,121,251,57,54,182,239,125,211,13,158,247,189,245,203,133,129,85,25,228]},"announce":[],"urlList":[]}}